<svg width="24" height="24" viewBox="0 0 24 24" fill="none" xmlns="http://www.w3.org/2000/svg">
<path d="M5.07652 8.07125C5.03517 7.49238 5.49363 7 6.07398 7H17.926C18.5064 7 18.9648 7.49238 18.9235 8.07125L18.0663 20.0712C18.029 20.5946 17.5935 21 17.0689 21H6.93112C6.40648 21 5.97104 20.5946 5.93366 20.0712L5.07652 8.07125Z" fill="white"/>
<path d="M9 7V5C9 4.20435 9.31607 3.44129 9.87868 2.87868C10.4413 2.31607 11.2044 2 12 2C12.7956 2 13.5587 2.31607 14.1213 2.87868C14.6839 3.44129 15 4.20435 15 5V7" stroke="white" stroke-width="1.8"/>
</svg>
