<svg width="24" height="24" viewBox="0 0 24 24" fill="none" xmlns="http://www.w3.org/2000/svg">
<path d="M12 2C10.4087 2 8.88258 2.63214 7.75736 3.75736C6.63214 4.88258 6 6.4087 6 8V12L4 16H20L18 12V8C18 6.4087 17.3679 4.88258 16.2426 3.75736C15.1174 2.63214 13.5913 2 12 2Z" fill="white"/>
<path d="M10 19C10 19.5304 10.2107 20.0391 10.5858 20.4142C10.9609 20.7893 11.4696 21 12 21C12.5304 21 13.0391 20.7893 13.4142 20.4142C13.7893 20.0391 14 19.5304 14 19" stroke="white" stroke-width="2"/>
</svg>
