<svg width="24" height="24" viewBox="0 0 24 24" fill="none" xmlns="http://www.w3.org/2000/svg">
<path d="M8 3C8 2.44772 7.55228 2 7 2C6.44772 2 6 2.44772 6 3V6C6 6.55228 6.44772 7 7 7C7.55228 7 8 6.55228 8 6V3Z" fill="white"/>
<path d="M18 3C18 2.44772 17.5523 2 17 2C16.4477 2 16 2.44772 16 3V6C16 6.55228 16.4477 7 17 7C17.5523 7 18 6.55228 18 6V3Z" fill="white"/>
<path d="M19 5C20.1046 5 21 5.89543 21 7V19C21 20.1046 20.1046 21 19 21H5C3.89543 21 3 20.1046 3 19V7C3 5.89543 3.89543 5 5 5H19ZM6 19H9V17H6V19ZM11 19H14V17H11V19ZM6 15H9V13H6V15ZM11 15H14V13H11V15ZM16 15H19V13H16V15ZM6 11H9V9H6V11ZM11 11H14V9H11V11ZM16 11H19V9H16V11Z" fill="white"/>
<path d="M21 10H19V9H16V10H14V9H11V10H9V9H6V10H3V5H21V10Z" fill="white"/>
</svg>
