<svg width="24" height="24" viewBox="0 0 24 24" fill="none" xmlns="http://www.w3.org/2000/svg">
<path d="M2 4H5L7.5 15H19.5L21.5 7H7" stroke="white" stroke-width="1.8" stroke-linejoin="round"/>
<path d="M9 21.5C9.82843 21.5 10.5 20.8284 10.5 20C10.5 19.1716 9.82843 18.5 9 18.5C8.17157 18.5 7.5 19.1716 7.5 20C7.5 20.8284 8.17157 21.5 9 21.5Z" fill="white"/>
<path d="M18 21.5C18.8284 21.5 19.5 20.8284 19.5 20C19.5 19.1716 18.8284 18.5 18 18.5C17.1716 18.5 16.5 19.1716 16.5 20C16.5 20.8284 17.1716 21.5 18 21.5Z" fill="white"/>
</svg>
