<svg width="24" height="24" viewBox="0 0 24 24" fill="none" xmlns="http://www.w3.org/2000/svg">
<path d="M18.3 7.1C18.6866 6.7134 18.6866 6.0866 18.3 5.7C17.9134 5.3134 17.2866 5.3134 16.9 5.7L12.7071 9.89289C12.3166 10.2834 11.6834 10.2834 11.2929 9.89289L7.1 5.7C6.7134 5.3134 6.0866 5.3134 5.7 5.7C5.3134 6.0866 5.3134 6.7134 5.7 7.1L9.89289 11.2929C10.2834 11.6834 10.2834 12.3166 9.89289 12.7071L5.7 16.9C5.3134 17.2866 5.3134 17.9134 5.7 18.3C6.0866 18.6866 6.7134 18.6866 7.1 18.3L11.2929 14.1071C11.6834 13.7166 12.3166 13.7166 12.7071 14.1071L16.9 18.3C17.2866 18.6866 17.9134 18.6866 18.3 18.3C18.6866 17.9134 18.6866 17.2866 18.3 16.9L14.1071 12.7071C13.7166 12.3166 13.7166 11.6834 14.1071 11.2929L18.3 7.1Z" fill="white"/>
</svg>
