<svg width="24" height="24" viewBox="0 0 24 24" fill="none" xmlns="http://www.w3.org/2000/svg">
<path d="M3 17.2499V20.9999H6.75L18 9.74995L14.25 5.99995L3 17.2499ZM20.7 6.03995C20.7937 5.94699 20.8681 5.83638 20.9189 5.71453C20.9697 5.59267 20.9958 5.46196 20.9958 5.32995C20.9958 5.19794 20.9697 5.06723 20.9189 4.94537C20.8681 4.82351 20.7937 4.71291 20.7 4.61995L18.38 2.29995C18.287 2.20622 18.1764 2.13183 18.0546 2.08106C17.9327 2.03029 17.802 2.00415 17.67 2.00415C17.538 2.00415 17.4073 2.03029 17.2854 2.08106C17.1636 2.13183 17.053 2.20622 16.96 2.29995L15.13 4.12995L18.88 7.87995L20.7 6.03995Z" fill="white"/>
</svg>
