<svg width="24" height="24" viewBox="0 0 24 24" fill="none" xmlns="http://www.w3.org/2000/svg">
<path d="M12 2.5C17.2467 2.5 21.5 6.75329 21.5 12C21.5 17.2467 17.2467 21.5 12 21.5C6.75329 21.5 2.5 17.2467 2.5 12C2.5 6.75329 6.75329 2.5 12 2.5ZM16.207 7.79297C15.8165 7.40244 15.1835 7.40244 14.793 7.79297L12 10.5859L9.20703 7.79297C8.81651 7.40244 8.18349 7.40244 7.79297 7.79297C7.40244 8.18349 7.40244 8.81651 7.79297 9.20703L10.5859 12L7.79297 14.793C7.40244 15.1835 7.40244 15.8165 7.79297 16.207C8.18349 16.5976 8.81651 16.5976 9.20703 16.207L12 13.4141L14.793 16.207C15.1835 16.5976 15.8165 16.5976 16.207 16.207C16.5976 15.8165 16.5976 15.1835 16.207 14.793L13.4141 12L16.207 9.20703C16.5976 8.81651 16.5976 8.18349 16.207 7.79297Z" fill="white"/>
</svg>
