<svg width="24" height="24" viewBox="0 0 24 24" fill="none" xmlns="http://www.w3.org/2000/svg">
<path d="M13 3C13 7 8 8 8 13C8 14.0609 8.42143 15.0783 9.17157 15.8284C9.92172 16.5786 10.9391 17 12 17C13.0609 17 14.0783 16.5786 14.8284 15.8284C15.5786 15.0783 16 14.0609 16 13C16 11.5 15.3 10.5 14.5 10C15 12 14 13 13 13C13 11 15 9 13 3Z" fill="white"/>
<path d="M9 13C8 14 7 15 7 17C7 18.3261 7.52678 19.5979 8.46447 20.5355C9.40215 21.4732 10.6739 22 12 22C13.3261 22 14.5979 21.4732 15.5355 20.5355C16.4732 19.5979 17 18.3261 17 17C17 16 16.6 15 16 14.5C16 16 15 17 14 17C13 17 12.5 16.5 12.5 15.5C12.5 14 11 13.5 9 13Z" fill="white"/>
</svg>
