<svg width="24" height="24" viewBox="0 0 24 24" fill="none" xmlns="http://www.w3.org/2000/svg">
<path d="M12 21.5C17.2467 21.5 21.5 17.2467 21.5 12C21.5 6.75329 17.2467 2.5 12 2.5C6.75329 2.5 2.5 6.75329 2.5 12C2.5 17.2467 6.75329 21.5 12 21.5Z" stroke="white" stroke-width="1.8"/>
<path d="M8.9998 11.2C9.66255 11.2 10.1998 10.6628 10.1998 10C10.1998 9.33731 9.66255 8.80005 8.9998 8.80005C8.33706 8.80005 7.7998 9.33731 7.7998 10C7.7998 10.6628 8.33706 11.2 8.9998 11.2Z" fill="white"/>
<path d="M14.9998 11.2C15.6625 11.2 16.1998 10.6628 16.1998 10C16.1998 9.33731 15.6625 8.80005 14.9998 8.80005C14.3371 8.80005 13.7998 9.33731 13.7998 10C13.7998 10.6628 14.3371 11.2 14.9998 11.2Z" fill="white"/>
<path d="M8 17C9.2 15.4 10.5 14.6 12 14.6C13.5 14.6 14.8 15.4 16 17" stroke="white" stroke-width="1.8" stroke-linecap="round"/>
</svg>
