<svg width="24" height="24" viewBox="0 0 24 24" fill="none" xmlns="http://www.w3.org/2000/svg">
<path d="M3.79847 10.9089C3.85487 10.9079 3.90932 10.9277 3.94607 10.9705C6.07607 13.4506 9.06954 14.2216 11.925 14.1799C14.5642 14.1413 17.1476 13.4105 18.9878 12.6392C19.2283 12.5384 19.4991 12.5694 19.7531 12.6287C22.6671 13.3078 25.3806 15.0697 19.5745 18.3739C12.9497 22.1439 5.00657 18.4979 1.69461 16.0973C1.5844 16.0174 1.49138 15.9208 1.42443 15.8025C1.08348 15.2001 0.732613 14.1119 1.29992 13.2627C1.43149 13.0659 1.55014 12.8573 1.62648 12.6333C1.88666 11.8703 2.54777 10.9315 3.79847 10.9089Z" fill="white"/>
<path d="M10.0372 4.01017C12.459 4.34775 14.1869 4.29191 15.1753 4.15992C15.66 4.09517 16.1784 4.23745 16.4628 4.63372C17.4809 6.05266 18.7391 8.51307 18.6007 11.0072C18.5853 11.2838 18.4616 11.5641 18.2041 11.6662C16.5043 12.3398 14.2163 12.9482 11.9073 12.982C9.6295 13.0152 7.38617 12.4917 5.63973 10.9749C5.33858 10.7134 5.39897 10.248 5.52291 9.86892C6.32827 7.40378 7.88924 4.09455 9.86573 4.00082C9.92258 3.99812 9.98086 4.00232 10.0372 4.01017Z" fill="white"/>
</svg>
