<svg width="24" height="24" viewBox="0 0 24 24" fill="none" xmlns="http://www.w3.org/2000/svg">
<path d="M12 2.5C17.2467 2.5 21.5 6.75329 21.5 12C21.5 17.2467 17.2467 21.5 12 21.5C6.75329 21.5 2.5 17.2467 2.5 12C2.5 6.75329 6.75329 2.5 12 2.5ZM12 16.4004C11.3927 16.4006 10.9004 16.8926 10.9004 17.5C10.9004 18.1074 11.3927 18.5994 12 18.5996C12.6075 18.5996 13.1006 18.1075 13.1006 17.5C13.1006 16.8925 12.6075 16.4004 12 16.4004ZM12.252 5.47949C11.5185 5.43324 10.786 5.59014 10.1357 5.93262C9.48559 6.27509 8.94216 6.78997 8.56543 7.4209C8.18866 8.0519 7.99305 8.77487 8 9.50977C8.00536 10.0619 8.45759 10.5052 9.00977 10.5C9.56195 10.4947 10.0052 10.0424 10 9.49023C9.99659 9.12291 10.0949 8.76168 10.2832 8.44629C10.4716 8.13089 10.7433 7.87335 11.0684 7.70215C11.3934 7.53101 11.7593 7.45246 12.126 7.47559C12.4925 7.49872 12.8456 7.62247 13.1465 7.83301C13.4474 8.04366 13.6848 8.33341 13.832 8.66992C13.9792 9.00645 14.031 9.37725 13.9814 9.74121C13.9318 10.1053 13.7827 10.4494 13.5508 10.7344C13.3189 11.0192 13.0132 11.235 12.667 11.3574L12.6084 11.3779L12.5527 11.4053C11.6978 11.8327 11.0001 12.6358 11 13.7998V15C11 15.5522 11.4478 15.9999 12 16C12.5523 16 13 15.5523 13 15V13.7998C13.0001 13.5702 13.0972 13.3772 13.4209 13.208C14.0774 12.9583 14.6584 12.5427 15.1025 11.9971C15.5665 11.4271 15.8646 10.7399 15.9639 10.0117C16.0631 9.2837 15.9594 8.54234 15.665 7.86914C15.3705 7.19581 14.896 6.61579 14.2939 6.19434C13.692 5.77298 12.9853 5.52577 12.252 5.47949Z" fill="white"/>
</svg>
