<svg width="24" height="24" viewBox="0 0 24 24" fill="none" xmlns="http://www.w3.org/2000/svg">
<path d="M20 4C19 13 14 19 5 19C5 10 11 4 20 4ZM19.2197 4.88184C19.1543 4.76031 19.0034 4.71491 18.8818 4.78027C15.5862 6.55486 13.3106 9.08732 11.3672 11.5322C10.3895 12.7622 9.51039 13.9506 8.6123 15.0361C7.7186 16.1163 6.82638 17.0672 5.84961 17.7998C5.73929 17.8827 5.717 18.04 5.7998 18.1504C5.88268 18.2607 6.03999 18.283 6.15039 18.2002C7.17355 17.4328 8.09395 16.4461 8.99707 15.3545C9.89585 14.2681 10.798 13.0502 11.7578 11.8428C13.6894 9.41271 15.9139 6.94513 19.1182 5.21973C19.2397 5.15429 19.2851 5.00338 19.2197 4.88184Z" fill="white"/>
</svg>
