<svg width="24" height="24" viewBox="0 0 24 24" fill="none" xmlns="http://www.w3.org/2000/svg">
<path d="M4 7.5C4.82843 7.5 5.5 6.82843 5.5 6C5.5 5.17157 4.82843 4.5 4 4.5C3.17157 4.5 2.5 5.17157 2.5 6C2.5 6.82843 3.17157 7.5 4 7.5Z" fill="white"/>
<path d="M20 5H9C8.44772 5 8 5.44772 8 6C8 6.55228 8.44772 7 9 7H20C20.5523 7 21 6.55228 21 6C21 5.44772 20.5523 5 20 5Z" fill="white"/>
<path d="M4 13.5C4.82843 13.5 5.5 12.8284 5.5 12C5.5 11.1716 4.82843 10.5 4 10.5C3.17157 10.5 2.5 11.1716 2.5 12C2.5 12.8284 3.17157 13.5 4 13.5Z" fill="white"/>
<path d="M20 11H9C8.44772 11 8 11.4477 8 12C8 12.5523 8.44772 13 9 13H20C20.5523 13 21 12.5523 21 12C21 11.4477 20.5523 11 20 11Z" fill="white"/>
<path d="M4 19.5C4.82843 19.5 5.5 18.8284 5.5 18C5.5 17.1716 4.82843 16.5 4 16.5C3.17157 16.5 2.5 17.1716 2.5 18C2.5 18.8284 3.17157 19.5 4 19.5Z" fill="white"/>
<path d="M20 17H9C8.44772 17 8 17.4477 8 18C8 18.5523 8.44772 19 9 19H20C20.5523 19 21 18.5523 21 18C21 17.4477 20.5523 17 20 17Z" fill="white"/>
</svg>
