<svg width="24" height="24" viewBox="0 0 24 24" fill="none" xmlns="http://www.w3.org/2000/svg">
<path d="M8 11V7C8 5.93913 8.42143 4.92172 9.17157 4.17157C9.92172 3.42143 10.9391 3 12 3C13.0609 3 14.0783 3.42143 14.8284 4.17157C15.5786 4.92172 16 5.93913 16 7V11" stroke="white" stroke-width="2"/>
<path d="M18 11C19.1046 11 20 11.8954 20 13V20C20 21.1046 19.1046 22 18 22H6C4.89543 22 4 21.1046 4 20V13C4 11.8954 4.89543 11 6 11H18ZM12 14.5C11.1716 14.5 10.5 15.1716 10.5 16C10.5 16.8284 11.1716 17.5 12 17.5C12.8284 17.5 13.5 16.8284 13.5 16C13.5 15.1716 12.8284 14.5 12 14.5Z" fill="white"/>
</svg>
