<svg width="24" height="24" viewBox="0 0 24 24" fill="none" xmlns="http://www.w3.org/2000/svg">
<path d="M16.8414 8.11101C16.8414 8.90691 16.8832 9.70598 16.834 10.4997C16.6873 12.0926 15.7633 13.5114 14.3639 14.2911C12.9645 15.071 11.2697 15.1116 9.83395 14.4001C8.39817 13.6896 7.40565 12.3179 7.18188 10.7337C7.14654 10.4933 7.12941 10.2508 7.13048 10.0083C7.12513 8.74132 7.12192 7.47325 7.12941 6.20632H7.13048C7.11442 4.56433 7.93349 3.02594 9.30503 2.11906C10.6776 1.21206 12.4174 1.05929 13.926 1.71523C15.4356 2.37009 16.5106 3.74288 16.7804 5.36354C16.8575 6.20856 16.8875 7.05787 16.8703 7.90612C16.8725 7.97449 16.8703 8.04286 16.8703 8.11124L16.8414 8.11101Z" fill="white"/>
<path d="M10.9993 21.7081V18.7319C8.62338 18.4623 6.46168 17.2255 5.01343 15.3093C4.38627 14.4973 3.91004 13.5764 3.61037 12.5919C3.50013 12.2511 3.58361 11.8769 3.82655 11.6149C4.07056 11.3528 4.43552 11.245 4.7812 11.3334C5.10014 11.4154 5.35592 11.6569 5.45759 11.9729C6.0398 13.8751 7.41396 15.4291 9.22369 16.2314C11.0324 17.0326 13.098 17.0035 14.883 16.1505C16.6692 15.2975 17.9984 13.7059 18.5282 11.7874C18.6331 11.3949 18.966 11.1091 19.3662 11.067C19.6894 11.0358 20.0051 11.1673 20.2128 11.4186C20.4193 11.6698 20.4889 12.0084 20.399 12.3211C19.9259 14.0142 18.9649 15.5281 17.6378 16.6691C16.3097 17.811 14.6756 18.5303 12.9427 18.7352V21.7083C12.9427 22.2486 12.5071 22.6875 11.9709 22.6875C11.713 22.6875 11.4657 22.584 11.2838 22.4006C11.1008 22.2173 10.9991 21.9682 10.9991 21.7083L10.9993 21.7081Z" fill="white"/>
</svg>
