<svg width="24" height="24" viewBox="0 0 24 24" fill="none" xmlns="http://www.w3.org/2000/svg">
<path fill-rule="evenodd" clip-rule="evenodd" d="M16.5682 17.9537C15.6426 19.0335 14.8985 19.9017 14.2242 20.4988C13.5254 21.1178 12.8139 21.5269 11.943 21.5603C11.072 21.5938 10.3312 21.2404 9.58705 20.677C8.86887 20.1332 8.06038 19.3247 7.05469 18.319L5.68108 16.9454C4.67538 15.9397 3.86683 15.1311 3.32309 14.413C2.75962 13.6688 2.40623 12.9281 2.43968 12.057C2.47314 11.1861 2.88229 10.4746 3.50118 9.77582C4.0984 9.10147 4.96655 8.35737 6.04644 7.43177L10.079 3.97529C10.7398 3.40845 11.1986 3.01481 11.7586 2.79075C12.3186 2.56668 12.9223 2.53515 13.7918 2.48974L14.7395 2.43989C16.1975 2.36313 17.3685 2.30148 18.2863 2.38062C19.2367 2.46256 20.039 2.70331 20.6678 3.33215C21.2967 3.96099 21.5374 4.76334 21.6194 5.71369C21.6985 6.63148 21.6369 7.8024 21.5601 9.26037L21.5103 10.2082C21.4649 11.0777 21.4333 11.6814 21.2093 12.2414C20.9852 12.8014 20.5916 13.2602 20.0248 13.921L16.5682 17.9537ZM13.4715 8.25261C13.4715 7.00238 14.4839 5.96648 15.7471 5.96648C17.0102 5.96648 18.0225 7.00238 18.0225 8.25261C18.0225 9.50284 17.0102 10.5388 15.7471 10.5388C14.4839 10.5388 13.4715 9.50284 13.4715 8.25261Z" fill="white"/>
</svg>
