<svg width="24" height="24" viewBox="0 0 24 24" fill="none" xmlns="http://www.w3.org/2000/svg">
<path d="M6.5 10.5C7.60457 10.5 8.5 9.60457 8.5 8.5C8.5 7.39543 7.60457 6.5 6.5 6.5C5.39543 6.5 4.5 7.39543 4.5 8.5C4.5 9.60457 5.39543 10.5 6.5 10.5Z" fill="white"/>
<path d="M10.5 7.5C11.6046 7.5 12.5 6.60457 12.5 5.5C12.5 4.39543 11.6046 3.5 10.5 3.5C9.39543 3.5 8.5 4.39543 8.5 5.5C8.5 6.60457 9.39543 7.5 10.5 7.5Z" fill="white"/>
<path d="M13.5 7.5C14.6046 7.5 15.5 6.60457 15.5 5.5C15.5 4.39543 14.6046 3.5 13.5 3.5C12.3954 3.5 11.5 4.39543 11.5 5.5C11.5 6.60457 12.3954 7.5 13.5 7.5Z" fill="white"/>
<path d="M17.5 10.5C18.6046 10.5 19.5 9.60457 19.5 8.5C19.5 7.39543 18.6046 6.5 17.5 6.5C16.3954 6.5 15.5 7.39543 15.5 8.5C15.5 9.60457 16.3954 10.5 17.5 10.5Z" fill="white"/>
<path d="M12 10C9 10 6 13 6 16.5C6 19 8 20 10 19C11 18.5 11 18 12 18C13 18 13 18.5 14 19C16 20 18 19 18 16.5C18 13 15 10 12 10Z" fill="white"/>
</svg>
