<svg width="24" height="24" viewBox="0 0 24 24" fill="none" xmlns="http://www.w3.org/2000/svg">
<path d="M16.5861 5.46661C15.2442 4.51836 13.6429 4.00629 11.9998 4C10.5153 4.04736 9.0733 4.50704 7.83527 5.32757C6.59725 6.1481 5.61209 7.29708 4.99012 8.64583C4.36815 9.99458 4.13393 11.4899 4.3137 12.9642C4.49346 14.4385 5.08011 15.8337 6.00794 16.9935C6.91507 18.1274 8.11332 18.9925 9.4737 19.4969C9.0998 19.3234 8.74227 19.1106 8.40749 18.8603C7.20737 17.9631 6.38639 16.6493 6.10602 15.1774C5.82565 13.7054 6.10619 12.1819 6.89245 10.9063C7.67871 9.63077 8.91379 8.69559 10.3548 8.2847C11.7957 7.87382 13.3383 8.01697 14.6791 8.68601C16.0198 9.35505 17.0617 10.5015 17.5998 11.9L14.9998 14H17.9998H19.9998H20.9998V8L19.4998 9.3C18.9453 7.7533 17.9279 6.41487 16.5861 5.46661Z" fill="white"/>
</svg>
