<svg width="24" height="24" viewBox="0 0 24 24" fill="none" xmlns="http://www.w3.org/2000/svg">
<path d="M15.8691 5C16.8137 5.35093 17.6931 5.85798 18.4697 6.5L20.8691 5.5L22.8691 9L20.8691 10.5C20.9543 10.9955 20.9986 11.4972 21 12C21 12.5 20.9491 13 20.8691 13.5L22.8691 15L20.8691 18.5L18.4697 17.5C17.6931 18.142 16.8137 18.6491 15.8691 19L15.5 21.5H8.5L8.12988 19C7.22988 18.6 6.3293 18.1 5.5293 17.5L3.12988 18.5L1.12988 15L3.12988 13.5C3.04988 13 3 12.5 3 12C2.95883 11.3317 2.99198 10.6609 3.09961 10L1.09961 8.5L3.09961 5L5.5 6C6.27653 5.35807 7.15518 4.8509 8.09961 4.5L8.5 2H15.5L15.8691 5ZM12 8C9.79086 8 8 9.79086 8 12C8 14.2091 9.79086 16 12 16C14.2091 16 16 14.2091 16 12C16 9.79086 14.2091 8 12 8Z" fill="white"/>
<circle cx="12" cy="12" r="2" fill="white"/>
</svg>
