<svg width="24" height="24" viewBox="0 0 24 24" fill="none" xmlns="http://www.w3.org/2000/svg">
<path d="M9.13289 2.63289C8.77259 2.27259 8.19898 2.24082 7.80109 2.55913L6 4L2.8 6.4C2.35817 6.73137 2.26863 7.35817 2.6 7.8L4.5 10.3333C4.77614 10.7015 5.29848 10.7761 5.66667 10.5C6.21603 10.088 7 10.48 7 11.1667V20C7 20.5523 7.44772 21 8 21H16C16.5523 21 17 20.5523 17 20V11.1667C17 10.48 17.784 10.088 18.3333 10.5C18.7015 10.7761 19.2239 10.7015 19.5 10.3333L21.4 7.8C21.7314 7.35817 21.6418 6.73137 21.2 6.4L18 4L16.1989 2.55913C15.801 2.24082 15.2274 2.27259 14.8671 2.63289L14.2929 3.20711C14.1054 3.39464 14.0118 3.65173 13.9573 3.91128C13.878 4.28834 13.6908 4.63762 13.4142 4.91421C13.0391 5.28929 12.5304 5.5 12 5.5C11.4696 5.5 10.9609 5.28929 10.5858 4.91421C10.3092 4.63762 10.122 4.28834 10.0427 3.91128C9.98819 3.65173 9.89464 3.39464 9.70711 3.20711L9.13289 2.63289Z" fill="white"/>
</svg>
