<svg width="24" height="24" viewBox="0 0 24 24" fill="none" xmlns="http://www.w3.org/2000/svg">
<path d="M20 5H9C8.44772 5 8 5.44772 8 6C8 6.55228 8.44772 7 9 7H20C20.5523 7 21 6.55228 21 6C21 5.44772 20.5523 5 20 5Z" fill="white"/>
<path d="M20 11H9C8.44772 11 8 11.4477 8 12C8 12.5523 8.44772 13 9 13H20C20.5523 13 21 12.5523 21 12C21 11.4477 20.5523 11 20 11Z" fill="white"/>
<path d="M20.2308 17H11.7692C11.3444 17 11 17.4477 11 18C11 18.5523 11.3444 19 11.7692 19H20.2308C20.6556 19 21 18.5523 21 18C21 17.4477 20.6556 17 20.2308 17Z" fill="white"/>
<path d="M4.35497 18.5907C3.96563 19.2325 3.03437 19.2325 2.64503 18.5907L0.696898 15.3795C0.391084 14.8754 0.753999 14.2308 1.3436 14.2308C1.76135 14.2308 2.1 13.8921 2.1 13.4744L2.1 6C2.1 5.44771 2.54771 5 3.1 5L3.9 5C4.45228 5 4.9 5.44771 4.9 6L4.9 13.4744C4.9 13.8921 5.23865 14.2308 5.6564 14.2308C6.246 14.2308 6.60892 14.8754 6.3031 15.3795L4.35497 18.5907Z" fill="white"/>
</svg>
