<svg width="24" height="24" viewBox="0 0 24 24" fill="none" xmlns="http://www.w3.org/2000/svg">
<path d="M20 11H9C8.44772 11 8 11.4477 8 12C8 12.5523 8.44772 13 9 13H20C20.5523 13 21 12.5523 21 12C21 11.4477 20.5523 11 20 11Z" fill="white"/>
<path d="M20 17H9C8.44772 17 8 17.4477 8 18C8 18.5523 8.44772 19 9 19H20C20.5523 19 21 18.5523 21 18C21 17.4477 20.5523 17 20 17Z" fill="white"/>
<path d="M20.2308 5H11.7692C11.3444 5 11 5.44772 11 6C11 6.55228 11.3444 7 11.7692 7H20.2308C20.6556 7 21 6.55228 21 6C21 5.44772 20.6556 5 20.2308 5Z" fill="white"/>
<path d="M2.64503 5.40929C3.03437 4.76753 3.96563 4.76753 4.35497 5.40929L6.3031 8.6205C6.60892 9.12459 6.246 9.76923 5.6564 9.76923C5.23865 9.76923 4.9 10.1079 4.9 10.5256L4.9 18C4.9 18.5523 4.45228 19 3.9 19H3.1C2.54771 19 2.1 18.5523 2.1 18L2.1 10.5256C2.1 10.1079 1.76135 9.76923 1.3436 9.76923C0.753998 9.76923 0.391084 9.12459 0.696898 8.6205L2.64503 5.40929Z" fill="white"/>
</svg>
