<svg width="24" height="24" viewBox="0 0 24 24" fill="none" xmlns="http://www.w3.org/2000/svg">
<path d="M11.3446 3.89859L9.10777 5.69666C8.64428 6.08051 8.20093 6.6462 7.8785 7.2927C7.67699 7.23209 7.45532 7.19168 7.23364 7.19168H4.83557C3.5257 7.19168 2.4375 8.26244 2.4375 9.59584V14.4042C2.4375 15.7174 3.50555 16.8083 4.83557 16.8083H7.23364C7.45532 16.8083 7.67699 16.7679 7.8785 16.7073C8.20093 17.3538 8.64428 17.9195 9.10777 18.3033L11.3446 20.1014C12.3724 20.9297 13.2187 20.5257 13.2187 19.1923V4.80772C13.1986 3.47432 12.3724 3.07026 11.3446 3.89859Z" fill="white"/>
<path d="M16.38 8.95898C16.027 8.62283 15.4779 8.64261 15.1445 8.99852C14.8111 9.35444 14.8307 9.90808 15.1837 10.2442C15.1837 10.2442 16.0859 11.134 16.0663 12.1029C16.0663 12.6368 15.7721 13.1311 15.223 13.6254C14.8503 13.9418 14.8111 14.4954 15.1249 14.8711C15.3014 15.0689 15.5367 15.1875 15.7917 15.1875C15.9878 15.1875 16.2035 15.1084 16.3604 14.97C17.3018 14.1395 17.7921 13.1904 17.8117 12.1424C17.8509 10.3431 16.4389 8.99852 16.38 8.95898Z" fill="white"/>
<path d="M18.325 5.64376C17.8974 5.40291 17.3272 5.56348 17.0829 5.98496C16.8385 6.40643 17.0014 6.96841 17.429 7.20925C18.6915 7.91171 19.7299 10.1195 19.7299 12.1265C19.7299 14.0332 18.7118 16.0804 17.429 16.7828C17.0014 17.0237 16.8385 17.5656 17.0829 18.0071C17.2458 18.3082 17.5512 18.4687 17.877 18.4687C18.0195 18.4687 18.1824 18.4286 18.325 18.3483C20.4426 17.1842 21.5625 14.3342 21.5625 12.1265C21.5625 9.77826 20.463 6.80784 18.325 5.64376Z" fill="white"/>
</svg>
