<svg width="24" height="24" viewBox="0 0 24 24" fill="none" xmlns="http://www.w3.org/2000/svg">
<path d="M17.5244 7.83068C17.027 7.4327 16.2808 7.48245 15.8579 8.0048C15.435 8.52715 15.5345 9.27336 16.0569 9.69622C16.7285 10.2434 17.1513 11.0892 17.1513 12.0095C17.1513 13.0044 16.6787 13.875 15.9325 14.4222C15.4599 14.7705 15.3853 15.4669 15.7584 15.9147L15.8579 16.0142C16.2559 16.4868 17.0021 16.5863 17.4747 16.2132C18.7184 15.2431 19.5144 13.7009 19.5144 12.0095C19.5144 10.3181 18.7433 8.82563 17.5244 7.83068Z" fill="white"/>
<path d="M20.2361 4.49766C19.7386 4.09968 19.0173 4.19917 18.5944 4.67177C18.1964 5.16925 18.2462 5.91547 18.7437 6.31345C20.3853 7.68151 21.4549 9.72116 21.4549 12.0096C21.4549 14.2979 20.3853 16.3625 18.7437 17.7057C18.2462 18.1036 18.1964 18.8499 18.5944 19.3473C18.9924 19.8448 19.7386 19.9443 20.2361 19.5463C22.425 17.7803 23.8428 15.069 23.8428 12.0344C23.8179 8.97495 22.425 6.2637 20.2361 4.49766Z" fill="white"/>
<path d="M10.5848 2.68184L4.54042 7.33324H1.58043C0.809346 7.33324 0.1875 7.95509 0.1875 8.72618V15.2929C0.1875 16.064 0.809346 16.6858 1.58043 16.6858H4.54042L10.6096 21.3372C11.6792 22.158 13.1965 21.4118 13.1965 20.0438V3.9504C13.1965 2.63209 11.6543 1.861 10.5848 2.68184Z" fill="white"/>
</svg>
