<svg width="24" height="24" viewBox="0 0 24 24" fill="none" xmlns="http://www.w3.org/2000/svg">
<path d="M3.0003 4H21.0003L22.0003 9C22.0094 9.64805 21.8084 10.2816 21.4273 10.8059C21.0463 11.3302 20.5057 11.7169 19.8865 11.9083C19.2673 12.0997 18.6028 12.0855 17.9923 11.8676C17.3819 11.6498 16.8585 11.2402 16.5003 10.7C16.2407 11.0389 15.9118 11.3185 15.5355 11.5201C15.1592 11.7217 14.7442 11.8407 14.3182 11.8691C13.8923 11.8975 13.4652 11.8347 13.0654 11.6848C12.6657 11.5349 12.3026 11.3014 12.0003 11C11.698 11.3014 11.3349 11.5349 10.9351 11.6848C10.5354 11.8347 10.1083 11.8975 9.68236 11.8691C9.2564 11.8407 8.84141 11.7217 8.46512 11.5201C8.08882 11.3185 7.75989 11.0389 7.5003 10.7C7.14213 11.2402 6.61867 11.6498 6.00825 11.8676C5.39784 12.0855 4.73329 12.0997 4.11408 11.9083C3.49487 11.7169 2.95429 11.3302 2.57325 10.8059C2.19221 10.2816 1.99119 9.64805 2.0003 9L3.0003 4Z" fill="white"/>
<path d="M4 11V20H10V15H14V20H20V11" stroke="white" stroke-width="1.8" stroke-linejoin="round"/>
</svg>
