<svg width="24" height="24" viewBox="0 0 24 24" fill="none" xmlns="http://www.w3.org/2000/svg">
<g clip-path="url(#clip0_924_93)">
<path d="M12 16.5C14.4853 16.5 16.5 14.4853 16.5 12C16.5 9.51472 14.4853 7.5 12 7.5C9.51472 7.5 7.5 9.51472 7.5 12C7.5 14.4853 9.51472 16.5 12 16.5Z" fill="white"/>
<path d="M12 1V4ZM12 20V23ZM1 12H4ZM20 12H23ZM4.2 4.2L6.3 6.3ZM17.7 17.7L19.8 19.8ZM4.2 19.8L6.3 17.7ZM17.7 6.3L19.8 4.2Z" fill="white"/>
<path d="M12 1V4M12 20V23M1 12H4M20 12H23M4.2 4.2L6.3 6.3M17.7 17.7L19.8 19.8M4.2 19.8L6.3 17.7M17.7 6.3L19.8 4.2" stroke="white" stroke-width="2" stroke-linecap="round"/>
</g>
<defs>
<clipPath id="clip0_924_93">
<rect width="24" height="24" fill="white"/>
</clipPath>
</defs>
</svg>
