<svg width="24" height="24" viewBox="0 0 24 24" fill="none" xmlns="http://www.w3.org/2000/svg">
<path d="M4 7.49998C4 7.22383 4.22386 6.99998 4.5 6.99998H13.7929C14.2383 6.99998 14.4614 6.4614 14.1464 6.14642L13.3536 5.35353C13.1583 5.15827 13.1583 4.84168 13.3536 4.64642L14.0464 3.95353C14.2417 3.75827 14.5583 3.75827 14.7536 3.95353L18.4464 7.64642C18.6417 7.84168 18.6417 8.15827 18.4464 8.35353L14.7536 12.0464C14.5583 12.2417 14.2417 12.2417 14.0464 12.0464L13.3536 11.3535C13.1583 11.1583 13.1583 10.8417 13.3536 10.6464L14.1464 9.85353C14.4614 9.53855 14.2383 8.99998 13.7929 8.99998H4.5C4.22386 8.99998 4 8.77612 4 8.49998V7.49998Z" fill="white"/>
<path d="M20.0002 16.5C20.0002 16.7761 19.7763 17 19.5002 17H10.2073C9.76185 17 9.53877 17.5385 9.85375 17.8535L10.6466 18.6464C10.8419 18.8417 10.8419 19.1583 10.6466 19.3535L9.95375 20.0464C9.75849 20.2417 9.4419 20.2417 9.24664 20.0464L5.55375 16.3535C5.35849 16.1583 5.35849 15.8417 5.55375 15.6464L9.24664 11.9535C9.4419 11.7583 9.75849 11.7583 9.95375 11.9535L10.6466 12.6464C10.8419 12.8417 10.8419 13.1583 10.6466 13.3535L9.85375 14.1464C9.53877 14.4614 9.76185 15 10.2073 15H19.5002C19.7763 15 20.0002 15.2238 20.0002 15.5V16.5Z" fill="white"/>
</svg>
