<svg width="24" height="24" viewBox="0 0 24 24" fill="none" xmlns="http://www.w3.org/2000/svg">
<path d="M12 21.5C17.2467 21.5 21.5 17.2467 21.5 12C21.5 6.75329 17.2467 2.5 12 2.5C6.75329 2.5 2.5 6.75329 2.5 12C2.5 17.2467 6.75329 21.5 12 21.5Z" stroke="white" stroke-width="1.8"/>
<path d="M12 17C14.7614 17 17 14.7614 17 12C17 9.23858 14.7614 7 12 7C9.23858 7 7 9.23858 7 12C7 14.7614 9.23858 17 12 17Z" stroke="white" stroke-width="1.8"/>
<path d="M12.0004 13.6C12.884 13.6 13.6004 12.8837 13.6004 12C13.6004 11.1164 12.884 10.4 12.0004 10.4C11.1167 10.4 10.4004 11.1164 10.4004 12C10.4004 12.8837 11.1167 13.6 12.0004 13.6Z" fill="white"/>
</svg>
