<svg width="24" height="24" viewBox="0 0 24 24" fill="none" xmlns="http://www.w3.org/2000/svg">
<path d="M12.4 2.53333C12.2 2.26667 11.8 2.26667 11.6 2.53333L6.6 9.2C6.35279 9.52962 6.58798 10 7 10H8.06574C8.46509 10 8.70328 10.4451 8.48177 10.7774L5.51823 15.2227C5.29671 15.5549 5.53491 16 5.93426 16H8.1169C8.50555 16 8.74561 16.424 8.54565 16.7572L6.45435 20.2428C6.25439 20.576 6.49445 21 6.8831 21H17.1169C17.5056 21 17.7456 20.576 17.5457 20.2428L15.4543 16.7572C15.2544 16.424 15.4944 16 15.8831 16H18.0657C18.4651 16 18.7033 15.5549 18.4818 15.2226L15.5182 10.7773C15.2967 10.4451 15.5349 10 15.9343 10H17C17.412 10 17.6472 9.52962 17.4 9.2L12.4 2.53333Z" fill="white"/>
<path d="M13 20H11V22H13V20Z" fill="white"/>
</svg>
