<svg width="24" height="24" viewBox="0 0 24 24" fill="none" xmlns="http://www.w3.org/2000/svg">
<path d="M8 11V6.99995C8.00919 6.19136 8.26324 5.40454 8.72864 4.74326C9.19405 4.08197 9.84895 3.57727 10.607 3.29571C11.365 3.01415 12.1906 2.96896 12.9749 3.16609C13.7591 3.36322 14.4652 3.79342 15 4.39995" stroke="white" stroke-width="2"/>
<path d="M18 11C19.1046 11 20 11.8954 20 13V20C20 21.1046 19.1046 22 18 22H6C4.89543 22 4 21.1046 4 20V13C4 11.8954 4.89543 11 6 11H18ZM12 14.5C11.1716 14.5 10.5 15.1716 10.5 16C10.5 16.8284 11.1716 17.5 12 17.5C12.8284 17.5 13.5 16.8284 13.5 16C13.5 15.1716 12.8284 14.5 12 14.5Z" fill="white"/>
</svg>
